<svg viewBox="0 0 1024 1024" width="64" height="64" fill="#707070">
  <path d="M525.184 394.666667a53.333333 53.333333 0 0 0-47.701333 29.482666l-27.946667 55.850667H384A74.666667 74.666667 0 0 0 309.333333 554.666667v266.666666c0 41.216 33.450667 74.666667 74.666667h426.666667a74.666667 74.666667 0 0 0 810.666667 480h-65.578667l-27.904-55.850667a53.333333 53.333333 0 0 0-47.701333-29.482666h-144.298667z m-21.333333 119.850666l27.946666-55.850666h131.072l27.946667 55.850666a53.333333 53.333333 0 0 0 47.701333 29.482667H810.666667a10.666667 10.666667v266.666666a10.666667 10.666667 0 0 1-10.666666-10.666667H384a10.666667 10.666667v266.666666a10.666667 10.666667H384a10.666667 10.666667v266.666666a10.666667 10.666667 0 0 1-10.666667 10.666667H384a10.666667 10.666667v266.666666a10.666667 10.666667H384a10.666667 10.666667v266.666666a10.666667 10.666667H384z"/>
</svg>
