<?xml version="1.0" standalone="no"?><!DOCTYPE svg PUBLIC "-//W3C//DTD SVG 1.1//EN" "http://www.w3.org/Graphics/SVG/1.1/DTD/svg11.dtd"><svg t="1772847370762" class="icon" viewBox="0 0 1024 1024" version="1.1" xmlns="http://www.w3.org/2000/svg" p-id="17281" xmlns:xlink="http://www.w3.org/1999/xlink" width="64" height="64"><path d="M128 136.533333c0-4.693333 3.84-8.533333 8.533333-8.533333h68.266667c4.693333 0 8.533333 3.84 8.533333 8.533333v68.266667a8.533333 8.533333 0 0 1-8.533333 8.533333H136.533333a8.533333 8.533333 0 0 1-8.533333-8.533333V136.533333zM597.333333 768a85.333333 85.333333 0 1 0 0-170.666667 85.333333 85.333333 0 0 0 0 170.666667z" p-id="17282" fill="#707070"></path><path d="M525.184 394.666667a53.333333 53.333333 0 0 0-47.701333 29.482666l-27.946667 55.850667H384A74.666667 74.666667 0 0 0 309.333333 554.666667v266.666666c0 41.216 33.450667 74.666667 74.666667 74.666667h426.666667a74.666667 74.666667 0 0 0 74.666666-74.666667V554.666667A74.666667 74.666667 0 0 0 810.666667 480h-65.578667l-27.904-55.850667a53.333333 53.333333 0 0 0-47.701333-29.482666h-144.298667z m-21.333333 119.850666l27.946666-55.850666h131.072l27.946667 55.850666a53.333333 53.333333 0 0 0 47.701333 29.482667H810.666667a10.666667 10.666667 0 0 1 10.666666 10.666667v266.666666a10.666667 10.666667 0 0 1-10.666666 10.666667H384a10.666667 10.666667 0 0 1-10.666667-10.666667V554.666667a10.666667 10.666667 0 0 1 10.666667-10.666667h72.149333a53.333333 53.333333 0 0 0 47.701334-29.482667z" p-id="17283" fill="#707070"></path><path d="M307.2 128a8.533333 8.533333 0 0 0-8.533333 8.533333v68.266667c0 4.693333 3.84 8.533333 8.533333 8.533333h68.266667a8.533333 8.533333 0 0 0 8.533333-8.533333V136.533333a8.533333 8.533333 0 0 0-8.533333-8.533333H307.2zM469.333333 136.533333c0-4.693333 3.84-8.533333 8.533334-8.533333h68.266666c4.693333 0 8.533333 3.84 8.533334 8.533333v68.266667a8.533333 8.533333 0 0 1-8.533334 8.533333h-68.266666a8.533333 8.533333 0 0 1-8.533334-8.533333V136.533333zM648.533333 128a8.533333 8.533333 0 0 0-8.533333 8.533333v68.266667c0 4.693333 3.84 8.533333 8.533333 8.533333h68.266667a8.533333 8.533333 0 0 0 8.533333-8.533333V136.533333a8.533333 8.533333 0 0 0-8.533333-8.533333h-68.266667zM810.666667 136.533333c0-4.693333 3.84-8.533333 8.533333-8.533333h68.266667c4.693333 0 8.533333 3.84 8.533333 8.533333v68.266667a8.533333 8.533333 0 0 1-8.533333 8.533333h-68.266667a8.533333 8.533333 0 0 1-8.533333-8.533333V136.533333zM819.2 298.666667a8.533333 8.533333 0 0 0-8.533333 8.533333v68.266667c0 4.693333 3.84 8.533333 8.533333 8.533333h68.266667a8.533333 8.533333 0 0 0 8.533333-8.533333V307.2a8.533333 8.533333 0 0 0-8.533333-8.533333h-68.266667zM128 307.2c0-4.693333 3.84-8.533333 8.533333-8.533333h68.266667c4.693333 0 8.533333 3.84 8.533333 8.533333v68.266667a8.533333 8.533333 0 0 1-8.533333 8.533333H136.533333a8.533333 8.533333 0 0 1-8.533333-8.533333V307.2zM136.533333 469.333333a8.533333 8.533333 0 0 0-8.533333 8.533334v68.266666c0 4.693333 3.84 8.533333 8.533333 8.533334h68.266667a8.533333 8.533333 0 0 0 8.533333-8.533334v-68.266666a8.533333 8.533333 0 0 0-8.533333-8.533334H136.533333zM128 648.533333c0-4.693333 3.84-8.533333 8.533333-8.533333h68.266667c4.693333 0 8.533333 3.84 8.533333 8.533333v68.266667a8.533333 8.533333 0 0 1-8.533333 8.533333H136.533333a8.533333 8.533333 0 0 1-8.533333-8.533333v-68.266667zM136.533333 810.666667a8.533333 8.533333 0 0 0-8.533333 8.533333v68.266667c0 4.693333 3.84 8.533333 8.533333 8.533333h68.266667a8.533333 8.533333 0 0 0 8.533333-8.533333v-68.266667a8.533333 8.533333 0 0 0-8.533333-8.533333H136.533333z" p-id="17284" fill="#707070"></path></svg>